<?xml version="1.0" encoding="UTF-8"?>
<svg id="katman_2" xmlns="http://www.w3.org/2000/svg" viewBox="0 0 433.39 94.69">
  <defs>
    <style>
      .cls-1 {
        fill: #aa175a;
      }

      .cls-2 {
        fill: #333f48;
      }
    </style>
  </defs>
  <g id="katman_1">
    <g>
      <g>
        <path class="cls-2" d="M204.75,15.92h12.01v63.68h-12.01V15.92Z"/>
        <path class="cls-2" d="M244.59,81.02c-2.73,0-5.34-.39-7.83-1.16-2.49-.77-4.77-1.93-6.85-3.47-2.08-1.54-3.88-3.42-5.42-5.65-1.54-2.22-2.76-4.82-3.65-7.78l11.29-4.45c.83,3.2,2.28,5.86,4.36,7.96,2.07,2.11,4.8,3.16,8.18,3.16,1.25,0,2.45-.16,3.6-.49,1.16-.33,2.19-.8,3.11-1.42.92-.62,1.65-1.41,2.18-2.36.53-.95.8-2.04.8-3.29s-.21-2.25-.62-3.2c-.42-.95-1.11-1.84-2.09-2.67-.98-.83-2.25-1.63-3.82-2.4-1.57-.77-3.51-1.57-5.83-2.4l-3.91-1.42c-1.72-.59-3.45-1.39-5.2-2.4-1.75-1.01-3.33-2.22-4.76-3.65-1.42-1.42-2.59-3.1-3.51-5.03-.92-1.93-1.38-4.1-1.38-6.54s.49-4.82,1.47-6.98c.98-2.16,2.37-4.06,4.18-5.69,1.81-1.63,3.97-2.9,6.49-3.82,2.52-.92,5.32-1.38,8.4-1.38s5.97.43,8.32,1.29c2.34.86,4.33,1.96,5.96,3.29,1.63,1.33,2.95,2.8,3.96,4.4,1.01,1.6,1.75,3.11,2.22,4.54l-10.58,4.45c-.59-1.78-1.68-3.38-3.25-4.8-1.57-1.42-3.72-2.13-6.45-2.13s-4.77.61-6.49,1.82c-1.72,1.22-2.58,2.8-2.58,4.76s.83,3.51,2.49,4.85c1.66,1.33,4.3,2.62,7.92,3.87l4,1.33c2.55.89,4.88,1.91,6.98,3.07,2.1,1.16,3.91,2.54,5.43,4.14,1.51,1.6,2.67,3.42,3.47,5.47.8,2.04,1.2,4.4,1.2,7.07,0,3.32-.67,6.18-2,8.58-1.33,2.4-3.04,4.37-5.11,5.91-2.08,1.54-4.42,2.7-7.03,3.47-2.61.77-5.16,1.16-7.65,1.16Z"/>
        <path class="cls-2" d="M315.73,78.17c-2.08.89-4.27,1.58-6.58,2.09-2.31.5-4.71.76-7.2.76-4.74,0-9.15-.86-13.21-2.58-4.06-1.72-7.57-4.08-10.54-7.07-2.97-2.99-5.29-6.52-6.98-10.58-1.69-4.06-2.53-8.4-2.53-13.03s.84-8.97,2.53-13.03c1.69-4.06,4.02-7.59,6.98-10.58,2.96-2.99,6.48-5.35,10.54-7.07,4.06-1.72,8.46-2.58,13.21-2.58s9.15.86,13.21,2.58c4.06,1.72,7.57,4.08,10.54,7.07,2.96,3,5.29,6.52,6.98,10.58,1.69,4.06,2.53,8.4,2.53,13.03,0,4.92-.92,9.49-2.76,13.7-1.84,4.21-4.42,7.83-7.74,10.85l4.89,7.29-8.89,5.96-4.98-7.38ZM302.22,57.9l8.89-6.05,6.94,10.49c1.6-1.84,2.86-3.99,3.78-6.45.92-2.46,1.38-5.17,1.38-8.14,0-3.26-.55-6.24-1.65-8.94-1.1-2.7-2.61-4.99-4.54-6.89-1.93-1.9-4.18-3.38-6.76-4.45s-5.35-1.6-8.32-1.6-5.74.53-8.32,1.6-4.83,2.55-6.76,4.45c-1.93,1.9-3.44,4.19-4.54,6.89-1.1,2.7-1.65,5.68-1.65,8.94s.55,6.24,1.65,8.94c1.1,2.7,2.61,5,4.54,6.89,1.93,1.9,4.18,3.38,6.76,4.45s5.35,1.6,8.32,1.6c1.3,0,2.55-.12,3.74-.36,1.19-.24,2.34-.56,3.47-.98l-6.94-10.41Z"/>
        <path class="cls-2" d="M352.46,27.3v14.76h25.52v11.38h-25.52v14.76h28.37v11.38h-40.38V15.92h40.38v11.38h-28.37Z"/>
        <path class="cls-2" d="M403.6,79.6V27.3h-17.79v-11.38h47.58v11.38h-17.79v52.29h-12.01Z"/>
        <path class="cls-2" d="M197.23,34.86c-1.51-3.91-3.69-7.28-6.54-10.09-2.85-2.82-6.29-4.99-10.32-6.54-4.03-1.54-8.57-2.31-13.61-2.31h-9.52v11.38h8.98c3.5,0,6.58.49,9.25,1.47,2.67.98,4.89,2.36,6.67,4.13,1.78,1.78,3.11,3.93,4,6.45.89,2.52,1.33,5.32,1.33,8.4s-.44,5.88-1.33,8.4c-.89,2.52-2.22,4.67-4,6.45-1.78,1.78-4,3.16-6.67,4.14-2.67.98-5.75,1.47-9.25,1.47h-8.98V27.3h-12.01v52.29h21.52c5.04,0,9.57-.77,13.61-2.31,4.03-1.54,7.47-3.7,10.32-6.49,2.85-2.79,5.02-6.14,6.54-10.05,1.51-3.91,2.27-8.24,2.27-12.98s-.76-8.98-2.27-12.9Z"/>
      </g>
      <path class="cls-1" d="M126.12,64l-17.3,30.69-17.05-29.18-16.85,29.18h-40.53L0,35.1C9.01,19.5,11.26,15.6,20.26,0h68.81c9.01,15.6,11.26,19.5,20.26,35.1l-16.69,28.9h33.47ZM72.85,32.67h-36.44l17.77,31.46h36.44l-17.77-31.46Z"/>
    </g>
  </g>
</svg>